<svg xmlns="http://www.w3.org/2000/svg" viewBox="0 0 50.08 49.16"><defs><style>.cls-1{fill:#e50914;}</style></defs><title>Loader</title><g id="Layer_2" data-name="Layer 2"><g id="Layer_1-2" data-name="Layer 1"><path class="cls-1" d="M33.92,47.15A24.31,24.31,0,0,1,.05,26.35a24.61,24.61,0,0,1,3.9-15A24.93,24.93,0,0,1,31.83,1,25.32,25.32,0,0,1,50.08,25h0a1.5,1.5,0,0,1-3,0s0,0,0,0a22.54,22.54,0,0,0-4.29-13.53A22.84,22.84,0,0,0,31.19,3.13a23.18,23.18,0,0,0-30,23.16A23.46,23.46,0,0,0,6.4,40.12a23.74,23.74,0,0,0,12.54,8.05A24,24,0,0,0,33.92,47.15Z"/></g></g></svg>